# xmcd CD Database Entry
#
# Track frame offsets:
# 150
# 13575
# 25725
# 41625
# 50100
#
# Disc length: 953 seconds
#
# Revision: 2
# Processed by: cddbd v1.4PL0 Copyright (c) Steve Scherf et al.
# Submitted via: tcd 2.0b
#
DISCID=3903b705
DTITLE=Senza Fiato - Aliento
DYEAR=1900
DGENRE=
TTITLE0=Get Back
TTITLE1=Taxman
TTITLE2=Sweet Child Of Mine
TTITLE3=The End
TTITLE4=My Sharona
EXTD=
EXTT0=
EXTT1=
EXTT2=
EXTT3=
EXTT4=
PLAYORDER=
